<mxfile host="app.diagrams.net" modified="2020-09-22T07:40:13.800Z" agent="5.0 (Windows NT 10.0; Win64; x64) AppleWebKit/537.36 (KHTML, like Gecko) Chrome/85.0.4183.102 Safari/537.36" etag="hqtRujNbFhtF1bf_WGjT" version="13.7.3" type="github" pages="2">
  <diagram id="0ekEjx-oGXe7x_7fYvuI" name="Page-1">
    <mxGraphModel dx="782" dy="412" grid="1" gridSize="10" guides="1" tooltips="1" connect="1" arrows="1" fold="1" page="1" pageScale="1" pageWidth="850" pageHeight="1100" math="0" shadow="0">
      <root>
        <mxCell id="0" />
        <mxCell id="1" parent="0" />
        <mxCell id="ctksGWh81Kf0tGHP2yHL-2" value="web page&lt;br&gt;(rate mass view)" style="whiteSpace=wrap;html=1;aspect=fixed;fillColor=#f8cecc;strokeColor=#b85450;" vertex="1" parent="1">
          <mxGeometry x="640" y="480" width="110" height="110" as="geometry" />
        </mxCell>
        <mxCell id="ctksGWh81Kf0tGHP2yHL-4" value="Rate Mass&lt;br&gt;Right" style="rounded=0;whiteSpace=wrap;html=1;" vertex="1" parent="1">
          <mxGeometry x="510" y="420" width="70" height="110" as="geometry" />
        </mxCell>
        <mxCell id="ctksGWh81Kf0tGHP2yHL-5" value="Actor" style="shape=umlActor;verticalLabelPosition=bottom;verticalAlign=top;html=1;outlineConnect=0;" vertex="1" parent="1">
          <mxGeometry x="210" y="480" width="20" height="40" as="geometry" />
        </mxCell>
        <mxCell id="ctksGWh81Kf0tGHP2yHL-6" value="Admin" style="text;html=1;align=center;verticalAlign=middle;resizable=0;points=[];autosize=1;" vertex="1" parent="1">
          <mxGeometry x="195" y="460" width="50" height="20" as="geometry" />
        </mxCell>
        <mxCell id="ctksGWh81Kf0tGHP2yHL-7" value="Function-1&lt;br&gt;(except ba analyst)" style="ellipse;whiteSpace=wrap;html=1;" vertex="1" parent="1">
          <mxGeometry x="340" y="480" width="120" height="95" as="geometry" />
        </mxCell>
        <mxCell id="ctksGWh81Kf0tGHP2yHL-9" value="Aanlyst" style="shape=umlActor;verticalLabelPosition=bottom;verticalAlign=top;html=1;outlineConnect=0;" vertex="1" parent="1">
          <mxGeometry x="205" y="575" width="30" height="45" as="geometry" />
        </mxCell>
        <mxCell id="ctksGWh81Kf0tGHP2yHL-10" value="capation Leader" style="shape=umlActor;verticalLabelPosition=bottom;verticalAlign=top;html=1;outlineConnect=0;" vertex="1" parent="1">
          <mxGeometry x="210" y="660" width="30" height="50" as="geometry" />
        </mxCell>
        <mxCell id="ctksGWh81Kf0tGHP2yHL-13" value="" style="endArrow=classic;html=1;exitX=1;exitY=0.3333333333333333;exitDx=0;exitDy=0;exitPerimeter=0;" edge="1" parent="1" source="ctksGWh81Kf0tGHP2yHL-5" target="ctksGWh81Kf0tGHP2yHL-7">
          <mxGeometry width="50" height="50" relative="1" as="geometry">
            <mxPoint x="380" y="650" as="sourcePoint" />
            <mxPoint x="430" y="600" as="targetPoint" />
          </mxGeometry>
        </mxCell>
        <mxCell id="ctksGWh81Kf0tGHP2yHL-14" value="" style="endArrow=classic;html=1;entryX=0.017;entryY=0.635;entryDx=0;entryDy=0;entryPerimeter=0;" edge="1" parent="1" target="ctksGWh81Kf0tGHP2yHL-7">
          <mxGeometry width="50" height="50" relative="1" as="geometry">
            <mxPoint x="240" y="600" as="sourcePoint" />
            <mxPoint x="430" y="600" as="targetPoint" />
          </mxGeometry>
        </mxCell>
        <mxCell id="ctksGWh81Kf0tGHP2yHL-15" value="" style="endArrow=classic;html=1;exitX=0.25;exitY=0.1;exitDx=0;exitDy=0;exitPerimeter=0;entryX=0.239;entryY=0.944;entryDx=0;entryDy=0;entryPerimeter=0;" edge="1" parent="1" source="ctksGWh81Kf0tGHP2yHL-10" target="ctksGWh81Kf0tGHP2yHL-7">
          <mxGeometry width="50" height="50" relative="1" as="geometry">
            <mxPoint x="380" y="650" as="sourcePoint" />
            <mxPoint x="430" y="600" as="targetPoint" />
          </mxGeometry>
        </mxCell>
        <mxCell id="ctksGWh81Kf0tGHP2yHL-16" value="Member Assignemnt" style="rounded=0;whiteSpace=wrap;html=1;" vertex="1" parent="1">
          <mxGeometry x="510" y="550" width="70" height="110" as="geometry" />
        </mxCell>
        <mxCell id="ctksGWh81Kf0tGHP2yHL-17" value="capitation" style="rounded=0;whiteSpace=wrap;html=1;" vertex="1" parent="1">
          <mxGeometry x="510" y="680" width="70" height="110" as="geometry" />
        </mxCell>
        <mxCell id="ctksGWh81Kf0tGHP2yHL-18" value="Function-2&lt;br&gt;(include ba analyst)" style="ellipse;whiteSpace=wrap;html=1;" vertex="1" parent="1">
          <mxGeometry x="350" y="615" width="120" height="95" as="geometry" />
        </mxCell>
        <mxCell id="ctksGWh81Kf0tGHP2yHL-19" value="" style="endArrow=classic;html=1;exitX=1;exitY=1;exitDx=0;exitDy=0;exitPerimeter=0;" edge="1" parent="1" source="ctksGWh81Kf0tGHP2yHL-9" target="ctksGWh81Kf0tGHP2yHL-18">
          <mxGeometry width="50" height="50" relative="1" as="geometry">
            <mxPoint x="380" y="650" as="sourcePoint" />
            <mxPoint x="430" y="600" as="targetPoint" />
          </mxGeometry>
        </mxCell>
        <mxCell id="ctksGWh81Kf0tGHP2yHL-21" value="BA Analyst" style="shape=umlActor;verticalLabelPosition=bottom;verticalAlign=top;html=1;outlineConnect=0;" vertex="1" parent="1">
          <mxGeometry x="210" y="760" width="30" height="50" as="geometry" />
        </mxCell>
        <mxCell id="ctksGWh81Kf0tGHP2yHL-25" value="" style="endArrow=classic;html=1;exitX=0.5;exitY=0.5;exitDx=0;exitDy=0;exitPerimeter=0;entryX=0;entryY=1;entryDx=0;entryDy=0;" edge="1" parent="1" source="ctksGWh81Kf0tGHP2yHL-21" target="ctksGWh81Kf0tGHP2yHL-18">
          <mxGeometry width="50" height="50" relative="1" as="geometry">
            <mxPoint x="380" y="650" as="sourcePoint" />
            <mxPoint x="430" y="600" as="targetPoint" />
          </mxGeometry>
        </mxCell>
        <mxCell id="ctksGWh81Kf0tGHP2yHL-26" value="web page&lt;br&gt;(member view)" style="whiteSpace=wrap;html=1;aspect=fixed;fillColor=#dae8fc;strokeColor=#6c8ebf;" vertex="1" parent="1">
          <mxGeometry x="640" y="640" width="110" height="110" as="geometry" />
        </mxCell>
        <mxCell id="ctksGWh81Kf0tGHP2yHL-27" value="&lt;font style=&quot;font-size: 10px&quot;&gt;Button&lt;/font&gt;" style="rounded=0;whiteSpace=wrap;html=1;" vertex="1" parent="1">
          <mxGeometry x="700" y="575" width="40" height="10" as="geometry" />
        </mxCell>
        <mxCell id="ctksGWh81Kf0tGHP2yHL-28" value="" style="endArrow=classic;html=1;exitX=1;exitY=0.5;exitDx=0;exitDy=0;entryX=0;entryY=0.75;entryDx=0;entryDy=0;" edge="1" parent="1" source="ctksGWh81Kf0tGHP2yHL-7" target="ctksGWh81Kf0tGHP2yHL-4">
          <mxGeometry width="50" height="50" relative="1" as="geometry">
            <mxPoint x="380" y="710" as="sourcePoint" />
            <mxPoint x="430" y="660" as="targetPoint" />
          </mxGeometry>
        </mxCell>
        <mxCell id="ctksGWh81Kf0tGHP2yHL-29" value="" style="endArrow=classic;html=1;" edge="1" parent="1" source="ctksGWh81Kf0tGHP2yHL-5" target="ctksGWh81Kf0tGHP2yHL-18">
          <mxGeometry width="50" height="50" relative="1" as="geometry">
            <mxPoint x="380" y="710" as="sourcePoint" />
            <mxPoint x="430" y="660" as="targetPoint" />
          </mxGeometry>
        </mxCell>
        <mxCell id="ctksGWh81Kf0tGHP2yHL-30" value="" style="endArrow=classic;html=1;exitX=1;exitY=0.75;exitDx=0;exitDy=0;" edge="1" parent="1" source="ctksGWh81Kf0tGHP2yHL-4" target="ctksGWh81Kf0tGHP2yHL-2">
          <mxGeometry width="50" height="50" relative="1" as="geometry">
            <mxPoint x="380" y="710" as="sourcePoint" />
            <mxPoint x="430" y="660" as="targetPoint" />
          </mxGeometry>
        </mxCell>
        <mxCell id="SJ4nseHpTDwJLnfDs6sK-1" value="" style="endArrow=classic;html=1;exitX=0.917;exitY=0.842;exitDx=0;exitDy=0;exitPerimeter=0;" edge="1" parent="1" source="ctksGWh81Kf0tGHP2yHL-7" target="ctksGWh81Kf0tGHP2yHL-16">
          <mxGeometry width="50" height="50" relative="1" as="geometry">
            <mxPoint x="490" y="610" as="sourcePoint" />
            <mxPoint x="540" y="560" as="targetPoint" />
          </mxGeometry>
        </mxCell>
        <mxCell id="SJ4nseHpTDwJLnfDs6sK-3" value="" style="endArrow=classic;html=1;exitX=1;exitY=1;exitDx=0;exitDy=0;entryX=-0.038;entryY=0.106;entryDx=0;entryDy=0;entryPerimeter=0;" edge="1" parent="1" source="ctksGWh81Kf0tGHP2yHL-7" target="ctksGWh81Kf0tGHP2yHL-17">
          <mxGeometry width="50" height="50" relative="1" as="geometry">
            <mxPoint x="462.65028822680415" y="705.90939244433" as="sourcePoint" />
            <mxPoint x="520" y="717.5" as="targetPoint" />
          </mxGeometry>
        </mxCell>
      </root>
    </mxGraphModel>
  </diagram>
  <diagram id="5p4-yCGdSJOprSN_6oRh" name="Page-2">
    <mxGraphModel dx="782" dy="412" grid="1" gridSize="10" guides="1" tooltips="1" connect="1" arrows="1" fold="1" page="1" pageScale="1" pageWidth="850" pageHeight="1100" math="0" shadow="0">
      <root>
        <mxCell id="U5xnM_AGdVnjPewlGX2t-0" />
        <mxCell id="U5xnM_AGdVnjPewlGX2t-1" parent="U5xnM_AGdVnjPewlGX2t-0" />
        <mxCell id="U5xnM_AGdVnjPewlGX2t-2" value="view&amp;nbsp;&amp;nbsp;&lt;br&gt;controller&lt;br&gt;(page level security)" style="whiteSpace=wrap;html=1;aspect=fixed;" vertex="1" parent="U5xnM_AGdVnjPewlGX2t-1">
          <mxGeometry x="400" y="40" width="80" height="80" as="geometry" />
        </mxCell>
        <mxCell id="U5xnM_AGdVnjPewlGX2t-3" value="service controller (web api)" style="whiteSpace=wrap;html=1;aspect=fixed;" vertex="1" parent="U5xnM_AGdVnjPewlGX2t-1">
          <mxGeometry x="400" y="200" width="80" height="80" as="geometry" />
        </mxCell>
        <mxCell id="U5xnM_AGdVnjPewlGX2t-4" value="page-old" style="rounded=0;whiteSpace=wrap;html=1;" vertex="1" parent="U5xnM_AGdVnjPewlGX2t-1">
          <mxGeometry x="100" y="40" width="120" height="70" as="geometry" />
        </mxCell>
        <mxCell id="U5xnM_AGdVnjPewlGX2t-5" value="" style="endArrow=classic;html=1;" edge="1" parent="U5xnM_AGdVnjPewlGX2t-1">
          <mxGeometry width="50" height="50" relative="1" as="geometry">
            <mxPoint x="220" y="65" as="sourcePoint" />
            <mxPoint x="400" y="65" as="targetPoint" />
          </mxGeometry>
        </mxCell>
        <mxCell id="U5xnM_AGdVnjPewlGX2t-6" value="" style="rounded=0;whiteSpace=wrap;html=1;" vertex="1" parent="U5xnM_AGdVnjPewlGX2t-1">
          <mxGeometry x="100" y="160" width="120" height="120" as="geometry" />
        </mxCell>
        <mxCell id="U5xnM_AGdVnjPewlGX2t-8" value="FORM/ GRID" style="rounded=0;whiteSpace=wrap;html=1;" vertex="1" parent="U5xnM_AGdVnjPewlGX2t-1">
          <mxGeometry x="120" y="210" width="80" height="65" as="geometry" />
        </mxCell>
        <mxCell id="U5xnM_AGdVnjPewlGX2t-9" value="DB" style="shape=cylinder3;whiteSpace=wrap;html=1;boundedLbl=1;backgroundOutline=1;size=15;" vertex="1" parent="U5xnM_AGdVnjPewlGX2t-1">
          <mxGeometry x="750" y="200" width="60" height="80" as="geometry" />
        </mxCell>
        <mxCell id="U5xnM_AGdVnjPewlGX2t-10" value="BAS" style="rounded=0;whiteSpace=wrap;html=1;" vertex="1" parent="U5xnM_AGdVnjPewlGX2t-1">
          <mxGeometry x="560" y="200" width="80" height="80" as="geometry" />
        </mxCell>
        <mxCell id="U5xnM_AGdVnjPewlGX2t-15" value="" style="shape=flexArrow;endArrow=classic;startArrow=classic;html=1;" edge="1" parent="U5xnM_AGdVnjPewlGX2t-1" source="U5xnM_AGdVnjPewlGX2t-10" target="U5xnM_AGdVnjPewlGX2t-9">
          <mxGeometry width="50" height="50" relative="1" as="geometry">
            <mxPoint x="450" y="230" as="sourcePoint" />
            <mxPoint x="500" y="180" as="targetPoint" />
          </mxGeometry>
        </mxCell>
        <mxCell id="U5xnM_AGdVnjPewlGX2t-16" value="" style="shape=flexArrow;endArrow=classic;startArrow=classic;html=1;entryX=-0.042;entryY=0.421;entryDx=0;entryDy=0;entryPerimeter=0;exitX=0.992;exitY=0.421;exitDx=0;exitDy=0;exitPerimeter=0;" edge="1" parent="U5xnM_AGdVnjPewlGX2t-1" source="U5xnM_AGdVnjPewlGX2t-3" target="U5xnM_AGdVnjPewlGX2t-10">
          <mxGeometry width="50" height="50" relative="1" as="geometry">
            <mxPoint x="450" y="230" as="sourcePoint" />
            <mxPoint x="500" y="180" as="targetPoint" />
          </mxGeometry>
        </mxCell>
        <mxCell id="U5xnM_AGdVnjPewlGX2t-17" value="" style="shape=flexArrow;endArrow=classic;startArrow=classic;html=1;entryX=0;entryY=0.25;entryDx=0;entryDy=0;" edge="1" parent="U5xnM_AGdVnjPewlGX2t-1" target="U5xnM_AGdVnjPewlGX2t-3">
          <mxGeometry width="50" height="50" relative="1" as="geometry">
            <mxPoint x="220" y="219.5" as="sourcePoint" />
            <mxPoint x="330" y="219.5" as="targetPoint" />
          </mxGeometry>
        </mxCell>
        <mxCell id="U5xnM_AGdVnjPewlGX2t-18" value="" style="endArrow=classic;html=1;exitX=-0.017;exitY=0.663;exitDx=0;exitDy=0;exitPerimeter=0;" edge="1" parent="U5xnM_AGdVnjPewlGX2t-1" source="U5xnM_AGdVnjPewlGX2t-2" target="U5xnM_AGdVnjPewlGX2t-6">
          <mxGeometry width="50" height="50" relative="1" as="geometry">
            <mxPoint x="450" y="230" as="sourcePoint" />
            <mxPoint x="500" y="180" as="targetPoint" />
          </mxGeometry>
        </mxCell>
        <mxCell id="U5xnM_AGdVnjPewlGX2t-19" value="REQUEST" style="text;html=1;strokeColor=none;fillColor=none;align=center;verticalAlign=middle;whiteSpace=wrap;rounded=0;" vertex="1" parent="U5xnM_AGdVnjPewlGX2t-1">
          <mxGeometry x="290" y="40" width="40" height="20" as="geometry" />
        </mxCell>
        <mxCell id="U5xnM_AGdVnjPewlGX2t-20" value="RESPONSE&lt;br&gt;(viewpage)" style="text;html=1;strokeColor=none;fillColor=none;align=center;verticalAlign=middle;whiteSpace=wrap;rounded=0;" vertex="1" parent="U5xnM_AGdVnjPewlGX2t-1">
          <mxGeometry x="250" y="120" width="40" height="20" as="geometry" />
        </mxCell>
        <mxCell id="U5xnM_AGdVnjPewlGX2t-22" value="RESPONSE" style="text;html=1;strokeColor=none;fillColor=none;align=center;verticalAlign=middle;whiteSpace=wrap;rounded=0;" vertex="1" parent="U5xnM_AGdVnjPewlGX2t-1">
          <mxGeometry x="310" y="230" width="40" height="20" as="geometry" />
        </mxCell>
        <mxCell id="U5xnM_AGdVnjPewlGX2t-23" value="" style="endArrow=classic;html=1;exitX=1;exitY=0.75;exitDx=0;exitDy=0;entryX=0.994;entryY=0.603;entryDx=0;entryDy=0;entryPerimeter=0;" edge="1" parent="U5xnM_AGdVnjPewlGX2t-1" source="U5xnM_AGdVnjPewlGX2t-8" target="U5xnM_AGdVnjPewlGX2t-6">
          <mxGeometry width="50" height="50" relative="1" as="geometry">
            <mxPoint x="450" y="230" as="sourcePoint" />
            <mxPoint x="500" y="180" as="targetPoint" />
          </mxGeometry>
        </mxCell>
        <mxCell id="U5xnM_AGdVnjPewlGX2t-25" value="REQUEST" style="text;html=1;strokeColor=none;fillColor=none;align=center;verticalAlign=middle;whiteSpace=wrap;rounded=0;" vertex="1" parent="U5xnM_AGdVnjPewlGX2t-1">
          <mxGeometry x="290" y="190" width="40" height="20" as="geometry" />
        </mxCell>
        <mxCell id="U5xnM_AGdVnjPewlGX2t-26" value="ADD" style="rounded=0;whiteSpace=wrap;html=1;" vertex="1" parent="U5xnM_AGdVnjPewlGX2t-1">
          <mxGeometry x="160" y="40" width="60" height="20" as="geometry" />
        </mxCell>
        <mxCell id="AhIJXW252xGum-O-eMYy-0" value="main" style="whiteSpace=wrap;html=1;aspect=fixed;" vertex="1" parent="U5xnM_AGdVnjPewlGX2t-1">
          <mxGeometry x="260" y="530" width="330" height="330" as="geometry" />
        </mxCell>
        <mxCell id="AhIJXW252xGum-O-eMYy-1" value="g1(partial)" style="whiteSpace=wrap;html=1;aspect=fixed;" vertex="1" parent="U5xnM_AGdVnjPewlGX2t-1">
          <mxGeometry x="290" y="610" width="100" height="100" as="geometry" />
        </mxCell>
        <mxCell id="AhIJXW252xGum-O-eMYy-2" value="g2(partial)" style="rounded=0;whiteSpace=wrap;html=1;" vertex="1" parent="U5xnM_AGdVnjPewlGX2t-1">
          <mxGeometry x="290" y="740" width="120" height="60" as="geometry" />
        </mxCell>
        <mxCell id="ZTyINHj4Bkdu6RTMR37f-0" value="level-1" style="text;html=1;strokeColor=none;fillColor=none;align=center;verticalAlign=middle;whiteSpace=wrap;rounded=0;" vertex="1" parent="U5xnM_AGdVnjPewlGX2t-1">
          <mxGeometry x="110" y="160" width="40" height="20" as="geometry" />
        </mxCell>
        <mxCell id="ZTyINHj4Bkdu6RTMR37f-1" value="level-2" style="text;html=1;strokeColor=none;fillColor=none;align=center;verticalAlign=middle;whiteSpace=wrap;rounded=0;" vertex="1" parent="U5xnM_AGdVnjPewlGX2t-1">
          <mxGeometry x="120" y="210" width="40" height="20" as="geometry" />
        </mxCell>
        <mxCell id="ZTyINHj4Bkdu6RTMR37f-2" value="del" style="rounded=0;whiteSpace=wrap;html=1;" vertex="1" parent="U5xnM_AGdVnjPewlGX2t-1">
          <mxGeometry x="170" y="255" width="30" height="20" as="geometry" />
        </mxCell>
        <mxCell id="ZTyINHj4Bkdu6RTMR37f-3" value="" style="rounded=0;whiteSpace=wrap;html=1;" vertex="1" parent="U5xnM_AGdVnjPewlGX2t-1">
          <mxGeometry x="120" y="180" width="80" height="20" as="geometry" />
        </mxCell>
        <mxCell id="ZTyINHj4Bkdu6RTMR37f-4" value="level-2" style="text;html=1;strokeColor=none;fillColor=none;align=center;verticalAlign=middle;whiteSpace=wrap;rounded=0;" vertex="1" parent="U5xnM_AGdVnjPewlGX2t-1">
          <mxGeometry x="120" y="180" width="40" height="20" as="geometry" />
        </mxCell>
      </root>
    </mxGraphModel>
  </diagram>
</mxfile>
